<svg width="50" height="50" viewBox="0 0 50 50" fill="none" xmlns="http://www.w3.org/2000/svg">
<path d="M38.4661 39.7635C38.3309 39.7634 38.1988 39.7227 38.0869 39.6467C37.975 39.5707 37.8885 39.4629 37.8386 39.3372C37.7887 39.2116 37.7776 39.0738 37.8069 38.9417C37.8361 38.8097 37.9043 38.6895 38.0026 38.5966C38.4344 38.1912 38.8756 37.7256 39.3141 37.2196C39.3725 37.1524 39.4435 37.0973 39.5231 37.0575C39.6027 37.0177 39.6894 36.994 39.7782 36.9878C39.8669 36.9815 39.9561 36.9928 40.0405 37.0209C40.1249 37.0491 40.203 37.0937 40.2702 37.152C40.3374 37.2103 40.3925 37.2813 40.4322 37.361C40.472 37.4406 40.4957 37.5273 40.502 37.616C40.5083 37.7048 40.497 37.794 40.4688 37.8784C40.4406 37.9628 40.3961 38.0409 40.3378 38.1081C39.8942 38.6231 39.4249 39.1154 38.9317 39.5831C38.8055 39.7009 38.6387 39.7655 38.4661 39.7635Z" fill="white"/>
<path d="M28.4594 44.8582C28.29 44.8588 28.1266 44.7958 28.0014 44.6817C27.8763 44.5676 27.7986 44.4106 27.7837 44.2419C27.7205 43.5466 27.3996 42.9 26.884 42.4291C26.3684 41.9583 25.6954 41.6972 24.9972 41.6972C24.299 41.6972 23.626 41.9583 23.1104 42.4291C22.5948 42.9 22.2739 43.5466 22.2107 44.2419C22.2028 44.3356 22.1754 44.4265 22.1303 44.5089C22.0853 44.5914 22.0235 44.6635 21.949 44.7208C21.8745 44.778 21.7888 44.819 21.6975 44.8413C21.6063 44.8636 21.5113 44.8665 21.4188 44.85C17.3749 44.117 13.6512 42.1668 10.7456 39.2602C7.84006 36.3537 5.8911 32.6293 5.15937 28.5852C5.14288 28.4927 5.14585 28.3978 5.16811 28.3065C5.19037 28.2152 5.23143 28.1295 5.28866 28.055C5.34588 27.9805 5.41802 27.9187 5.50047 27.8737C5.58292 27.8286 5.67386 27.8012 5.76748 27.7933C6.46433 27.7343 7.11327 27.4146 7.58472 26.898C8.05617 26.3815 8.31543 25.7061 8.31072 25.0068C8.30766 24.3094 8.04547 23.638 7.5751 23.123C7.10473 22.6081 6.45976 22.2863 5.76545 22.2203C5.67183 22.2124 5.58089 22.185 5.49844 22.1399C5.416 22.0949 5.34386 22.0331 5.28663 21.9586C5.2294 21.8841 5.18835 21.7984 5.16609 21.7071C5.14383 21.6158 5.14085 21.5209 5.15735 21.4284C5.88952 17.3844 7.83894 13.6604 10.7449 10.7543C13.6509 7.84818 17.3749 5.8986 21.4188 5.16626C21.5113 5.14976 21.6063 5.15274 21.6975 5.175C21.7888 5.19726 21.8745 5.23831 21.949 5.29554C22.0235 5.35277 22.0853 5.42491 22.1303 5.50736C22.1754 5.5898 22.2028 5.68074 22.2107 5.77437C22.2739 6.46972 22.5948 7.11632 23.1104 7.58717C23.626 8.05801 24.299 8.31907 24.9972 8.31907C25.6954 8.31907 26.3684 8.05801 26.884 7.58717C27.3996 7.11632 27.7205 6.46972 27.7837 5.77437C27.7916 5.68074 27.819 5.5898 27.8641 5.50736C27.9091 5.42491 27.9709 5.35277 28.0454 5.29554C28.12 5.23831 28.2056 5.19726 28.2969 5.175C28.3882 5.15274 28.4831 5.14976 28.5756 5.16626C32.6202 5.89798 36.3449 7.84728 39.2515 10.7534C42.1581 13.6596 44.1081 17.384 44.8405 21.4284C44.857 21.5209 44.854 21.6158 44.8317 21.7071C44.8095 21.7984 44.7684 21.8841 44.7112 21.9586C44.6539 22.0331 44.5818 22.0949 44.4994 22.1399C44.4169 22.185 44.326 22.2124 44.2323 22.2203C43.5384 22.2868 42.8939 22.6088 42.424 23.1237C41.954 23.6386 41.6921 24.3097 41.6891 25.0068C41.6844 25.7064 41.944 26.3821 42.4159 26.8987C42.8877 27.4153 43.5372 27.7348 44.2344 27.7933C44.3279 27.8012 44.4188 27.8286 44.5012 27.8736C44.5836 27.9186 44.6557 27.9803 44.7129 28.0548C44.7701 28.1292 44.8112 28.2148 44.8335 28.306C44.8558 28.3972 44.8589 28.4921 44.8425 28.5845C44.5102 30.4387 43.9188 32.2369 43.0857 33.9264C43.0067 34.0877 42.8668 34.211 42.6969 34.2691C42.527 34.3273 42.3409 34.3156 42.1796 34.2365C42.0184 34.1575 41.8951 34.0176 41.8369 33.8477C41.7788 33.6778 41.7905 33.4917 41.8695 33.3304C42.5464 31.956 43.0522 30.5037 43.3756 29.0061C42.5008 28.7633 41.7296 28.2404 41.1802 27.5177C40.6307 26.7949 40.3332 25.912 40.3332 25.0041C40.3332 24.0962 40.6307 23.2133 41.1802 22.4905C41.7296 21.7677 42.5008 21.2449 43.3756 21.0021C42.6057 17.482 40.8423 14.2567 38.2946 11.7087C35.7469 9.16061 32.5219 7.39678 29.0019 6.62639C28.7591 7.50122 28.2363 8.27236 27.5135 8.82182C26.7907 9.37127 25.9078 9.66877 24.9999 9.66877C24.092 9.66877 23.2091 9.37127 22.4863 8.82182C21.7636 8.27236 21.2407 7.50122 20.9979 6.62639C17.4771 7.39652 14.2512 9.16055 11.703 11.7091C9.15474 14.2577 7.39117 17.4839 6.62154 21.0048C7.49636 21.2476 8.26751 21.7705 8.81696 22.4932C9.36642 23.216 9.66391 24.0989 9.66391 25.0068C9.66391 25.9147 9.36642 26.7976 8.81696 27.5204C8.26751 28.2431 7.49636 28.766 6.62154 29.0088C7.39127 32.5299 9.15505 35.7562 11.7035 38.3048C14.252 40.8534 17.4782 42.6173 20.9992 43.3872C21.2419 42.5121 21.7647 41.7406 22.4875 41.1909C23.2104 40.6412 24.0935 40.3436 25.0016 40.3436C25.9097 40.3436 26.7928 40.6412 27.5157 41.1909C28.2385 41.7406 28.7613 42.5121 29.004 43.3872C30.8637 42.9889 32.6507 42.3051 34.3013 41.3602C34.3784 41.3136 34.464 41.283 34.5532 41.2701C34.6423 41.2571 34.7332 41.2621 34.8203 41.2848C34.9075 41.3075 34.9893 41.3474 35.0608 41.4021C35.1324 41.4568 35.1922 41.5253 35.2369 41.6035C35.2816 41.6817 35.3102 41.7681 35.3211 41.8575C35.3319 41.9469 35.3247 42.0376 35.3 42.1242C35.2753 42.2108 35.2335 42.2916 35.1771 42.3619C35.1207 42.4321 35.0508 42.4903 34.9715 42.5331C32.9901 43.6682 30.8271 44.4517 28.5783 44.8487C28.539 44.8553 28.4992 44.8584 28.4594 44.8582Z" fill="white"/>
<path d="M25 9.66964C23.9619 9.67595 22.9596 9.29027 22.1935 8.58967C21.4274 7.88906 20.9539 6.92516 20.8676 5.89059C20.8518 5.76553 20.8442 5.6396 20.8446 5.51356C20.8446 4.41148 21.2824 3.35453 22.0617 2.57524C22.841 1.79595 23.8979 1.35815 25 1.35815C26.1021 1.35815 27.1591 1.79595 27.9383 2.57524C28.7176 3.35453 29.1554 4.41148 29.1554 5.51356C29.1556 5.64709 29.1471 5.78048 29.1298 5.91288C29.0396 6.94352 28.5646 7.90238 27.7993 8.59856C27.034 9.29474 26.0346 9.67714 25 9.66964ZM25 2.71018C24.2566 2.71108 23.5439 3.00679 23.0182 3.53246C22.4926 4.05813 22.1969 4.77083 22.196 5.51424C22.1962 5.59307 22.2012 5.67181 22.2108 5.75005C22.2675 6.44868 22.5843 7.1006 23.0986 7.57684C23.6129 8.05308 24.2872 8.31894 24.9881 8.32183C25.689 8.32471 26.3655 8.06442 26.8837 7.59244C27.4019 7.12045 27.7241 6.47116 27.7865 5.77302C27.7977 5.6872 27.8036 5.60078 27.8041 5.51424C27.8034 4.77071 27.5077 4.05784 26.982 3.53202C26.4564 3.00621 25.7436 2.71108 25 2.71018Z" fill="white"/>
<path d="M25 48.6554C23.8983 48.6543 22.8419 48.2162 22.0629 47.4371C21.2838 46.6581 20.8457 45.6018 20.8446 44.5C20.8444 44.3665 20.853 44.2331 20.8703 44.1007C20.9682 43.071 21.4472 42.1151 22.2133 41.4203C22.9795 40.7254 23.9775 40.3419 25.0118 40.3447C26.0461 40.3476 27.042 40.7367 27.8043 41.4358C28.5666 42.1349 29.0403 43.0935 29.1324 44.1237C29.1482 44.2485 29.1559 44.3742 29.1554 44.5C29.1543 45.6018 28.7162 46.6581 27.9371 47.4371C27.1581 48.2162 26.1018 48.6543 25 48.6554ZM25 41.6959C24.3003 41.6915 23.6247 41.9511 23.1081 42.4231C22.5915 42.8951 22.272 43.5446 22.2135 44.2419C22.2025 44.3275 22.1965 44.4137 22.196 44.5C22.196 45.2437 22.4914 45.9569 23.0172 46.4828C23.5431 47.0086 24.2563 47.3041 25 47.3041C25.7437 47.3041 26.4569 47.0086 26.9828 46.4828C27.5086 45.9569 27.8041 45.2437 27.8041 44.5C27.8038 44.4214 27.7989 44.3429 27.7892 44.2649C27.7346 43.5636 27.4167 42.909 26.8993 42.4324C26.3819 41.9559 25.7034 41.6928 25 41.6959Z" fill="white"/>
<path d="M44.4933 29.1622C44.3577 29.1622 44.2223 29.1537 44.0878 29.1365C43.0625 29.0329 42.1123 28.5514 41.4225 27.7857C40.7327 27.0199 40.3526 26.0249 40.3562 24.9943C40.3599 23.9637 40.747 22.9713 41.4421 22.2105C42.1373 21.4496 43.0908 20.9748 44.1169 20.8784C44.2417 20.8622 44.3674 20.8543 44.4933 20.8548C45.5953 20.8548 46.6523 21.2926 47.4316 22.0718C48.2109 22.8511 48.6487 23.9081 48.6487 25.0102C48.6487 26.1122 48.2109 27.1692 47.4316 27.9485C46.6523 28.7278 45.5953 29.1656 44.4933 29.1656V29.1622ZM44.4933 22.2027C44.4169 22.2028 44.3406 22.2078 44.2649 22.2176C43.5653 22.2783 42.9136 22.5979 42.4373 23.1137C41.9609 23.6296 41.6941 24.3046 41.6892 25.0068C41.6845 25.7064 41.9441 26.3821 42.4159 26.8987C42.8878 27.4152 43.5373 27.7347 44.2345 27.7933C44.3203 27.8047 44.4067 27.8105 44.4933 27.8108C45.2369 27.8108 45.9502 27.5154 46.476 26.9895C47.0019 26.4637 47.2973 25.7505 47.2973 25.0068C47.2973 24.2631 47.0019 23.5499 46.476 23.024C45.9502 22.4982 45.2369 22.2027 44.4933 22.2027Z" fill="white"/>
<path d="M5.50672 29.1621C4.40464 29.1621 3.3477 28.7243 2.56841 27.945C1.78912 27.1658 1.35132 26.1088 1.35132 25.0067C1.35132 23.9046 1.78912 22.8477 2.56841 22.0684C3.3477 21.2891 4.40464 20.8513 5.50672 20.8513C5.64228 20.8515 5.77769 20.8603 5.91213 20.8777C6.941 20.9773 7.89562 21.4575 8.58901 22.2241C9.2824 22.9907 9.66463 23.9886 9.66082 25.0223C9.65702 26.0559 9.26746 27.051 8.56844 27.8125C7.86942 28.574 6.9113 29.0471 5.88172 29.1392C5.75736 29.155 5.63209 29.1627 5.50672 29.1621ZM5.50672 22.2027C5.13849 22.2027 4.77386 22.2752 4.43366 22.4161C4.09346 22.557 3.78434 22.7636 3.52396 23.024C3.26358 23.2843 3.05703 23.5935 2.91612 23.9337C2.7752 24.2739 2.70267 24.6385 2.70267 25.0067C2.70267 25.375 2.7752 25.7396 2.91612 26.0798C3.05703 26.42 3.26358 26.7291 3.52396 26.9895C3.78434 27.2499 4.09346 27.4564 4.43366 27.5973C4.77386 27.7382 5.13849 27.8108 5.50672 27.8108C5.58307 27.8109 5.65936 27.8062 5.7351 27.7966C6.43385 27.7409 7.08625 27.425 7.56322 26.9113C8.04018 26.3977 8.30697 25.7237 8.31079 25.0227C8.31461 24.3218 8.05519 23.6449 7.58386 23.1261C7.11252 22.6072 6.46361 22.2842 5.76551 22.2209C5.67972 22.2093 5.59329 22.2032 5.50672 22.2027Z" fill="white"/>
<path d="M25 38.5202C22.3272 38.5202 19.7145 37.7276 17.4923 36.2428C15.27 34.7579 13.5379 32.6474 12.5151 30.1781C11.4923 27.7088 11.2247 24.9917 11.7461 22.3703C12.2675 19.749 13.5546 17.3411 15.4445 15.4512C17.3344 13.5613 19.7422 12.2743 22.3636 11.7528C24.985 11.2314 27.7021 11.499 30.1714 12.5218C32.6406 13.5446 34.7512 15.2767 36.236 17.499C37.7209 19.7213 38.5135 22.334 38.5135 25.0067C38.5094 28.5894 37.0843 32.0243 34.5509 34.5576C32.0175 37.091 28.5827 38.5161 25 38.5202ZM25 12.8445C22.5945 12.8445 20.2431 13.5578 18.243 14.8942C16.243 16.2306 14.6841 18.1301 13.7636 20.3524C12.8431 22.5748 12.6022 25.0202 13.0715 27.3794C13.5408 29.7386 14.6991 31.9057 16.4 33.6066C18.1009 35.3075 20.268 36.4659 22.6272 36.9352C24.9865 37.4044 27.4319 37.1636 29.6542 36.2431C31.8766 35.3225 33.776 33.7637 35.1124 31.7636C36.4488 29.7636 37.1621 27.4121 37.1621 25.0067C37.1584 21.7822 35.8758 18.6909 33.5958 16.4109C31.3157 14.1308 28.2244 12.8483 25 12.8445Z" fill="white"/>
<path d="M25 38.5204C21.2716 38.5204 18.3513 32.5846 18.3513 25.0069C18.3513 17.4292 21.2716 11.4934 25 11.4934C28.7283 11.4934 31.6486 17.4292 31.6486 25.0069C31.6486 32.5846 28.7283 38.5204 25 38.5204ZM25 12.8448C22.1283 12.8448 19.7027 18.4144 19.7027 25.0069C19.7027 31.5995 22.1283 37.1691 25 37.1691C27.8716 37.1691 30.2973 31.5995 30.2973 25.0069C30.2973 18.4144 27.8716 12.8448 25 12.8448Z" fill="white"/>
<path d="M25 38.5204C24.8208 38.5204 24.649 38.4493 24.5222 38.3225C24.3955 38.1958 24.3243 38.024 24.3243 37.8448V12.1691C24.3243 11.9899 24.3955 11.818 24.5222 11.6913C24.649 11.5646 24.8208 11.4934 25 11.4934C25.1792 11.4934 25.3511 11.5646 25.4778 11.6913C25.6045 11.818 25.6757 11.9899 25.6757 12.1691V37.8448C25.6757 38.024 25.6045 38.1958 25.4778 38.3225C25.3511 38.4493 25.1792 38.5204 25 38.5204Z" fill="white"/>
<path d="M37.8378 25.6824H12.1621C11.9829 25.6824 11.8111 25.6112 11.6844 25.4845C11.5576 25.3578 11.4865 25.1859 11.4865 25.0067C11.4865 24.8275 11.5576 24.6557 11.6844 24.529C11.8111 24.4022 11.9829 24.3311 12.1621 24.3311H37.8378C38.017 24.3311 38.1889 24.4022 38.3156 24.529C38.4423 24.6557 38.5135 24.8275 38.5135 25.0067C38.5135 25.1859 38.4423 25.3578 38.3156 25.4845C38.1889 25.6112 38.017 25.6824 37.8378 25.6824Z" fill="white"/>
<path d="M36.3189 19.6128H13.6885C13.5093 19.6128 13.3374 19.5416 13.2107 19.4149C13.084 19.2882 13.0128 19.1164 13.0128 18.9372C13.0128 18.7579 13.084 18.5861 13.2107 18.4594C13.3374 18.3327 13.5093 18.2615 13.6885 18.2615H36.3189C36.4981 18.2615 36.67 18.3327 36.7967 18.4594C36.9234 18.5861 36.9946 18.7579 36.9946 18.9372C36.9946 19.1164 36.9234 19.2882 36.7967 19.4149C36.67 19.5416 36.4981 19.6128 36.3189 19.6128Z" fill="white"/>
<path d="M36.3189 31.752H13.6885C13.5093 31.752 13.3374 31.6808 13.2107 31.5541C13.084 31.4274 13.0128 31.2555 13.0128 31.0763C13.0128 30.8971 13.084 30.7252 13.2107 30.5985C13.3374 30.4718 13.5093 30.4006 13.6885 30.4006H36.3189C36.4981 30.4006 36.67 30.4718 36.7967 30.5985C36.9234 30.7252 36.9946 30.8971 36.9946 31.0763C36.9946 31.2555 36.9234 31.4274 36.7967 31.5541C36.67 31.6808 36.4981 31.752 36.3189 31.752Z" fill="white"/>
</svg>
