<svg width="50" height="50" viewBox="0 0 50 50" fill="none" xmlns="http://www.w3.org/2000/svg">
<path d="M29.4217 26.2428H18.4226C18.139 26.2428 17.9089 26.4729 17.9089 26.7565C17.9089 27.0401 18.139 27.2702 18.4226 27.2702H29.4217C29.7053 27.2702 29.9354 27.0401 29.9354 26.7565C29.9354 26.4729 29.7053 26.2428 29.4217 26.2428Z" fill="white"/>
<path d="M42.6141 37.2385H37.1326C36.849 37.2385 36.6189 37.4686 36.6189 37.7522C36.6189 38.0358 36.849 38.2659 37.1326 38.2659H42.6141C42.8977 38.2659 43.1278 38.0358 43.1278 37.7522C43.1278 37.4686 42.8977 37.2385 42.6141 37.2385Z" fill="white"/>
<path d="M37.1212 32.6794C37.2122 32.6813 41.116 32.7662 41.2121 32.7683C41.5041 32.7683 41.7325 32.5262 41.7258 32.2426L41.6368 28.3397C41.6301 28.0607 41.402 27.838 41.1231 27.838H37.1326C36.849 27.838 36.6189 28.0681 36.6189 28.3517V32.1657C36.6189 32.4452 36.8423 32.6733 37.1212 32.6794ZM37.6463 28.8654H40.6208L40.6863 31.7295L37.6463 31.6633V28.8654Z" fill="white"/>
<path d="M7.2671 34.48C7.5525 34.4862 6.23322 34.4572 10.0583 34.5409C10.3501 34.5409 10.5788 34.2992 10.572 34.0158L10.5118 31.3563C10.5051 31.0767 10.2771 30.854 9.99813 30.854H7.27847C6.99486 30.854 6.76477 31.0841 6.76477 31.3677V33.9663C6.76477 34.2459 6.98818 34.474 7.2671 34.48ZM7.79217 31.8814H9.4958L9.53259 33.5021L7.79217 33.464V31.8814Z" fill="white"/>
<path d="M10.1808 37.4158H6.98355C6.69994 37.4158 6.46985 37.6459 6.46985 37.9295C6.46985 38.2131 6.69994 38.4432 6.98355 38.4432H10.1808C10.4644 38.4432 10.6945 38.2131 10.6945 37.9295C10.6945 37.6459 10.4644 37.4158 10.1808 37.4158Z" fill="white"/>
<path d="M9.64369 39.6324H8.225C7.9414 39.6324 7.7113 39.8625 7.7113 40.1461C7.7113 40.4297 7.9414 40.6598 8.225 40.6598H9.64369C9.9273 40.6598 10.1574 40.4297 10.1574 40.1461C10.1574 39.8625 9.9273 39.6324 9.64369 39.6324Z" fill="white"/>
<path d="M31.6351 8.82654C31.916 8.82654 32.1454 8.60046 32.1488 8.31886C32.1595 7.40718 32.3274 6.51088 32.6477 5.65472C32.7474 5.38917 32.613 5.09353 32.3468 4.99387C32.0846 4.89621 31.7856 5.02865 31.6859 5.29486C31.3234 6.26206 31.1334 7.27608 31.1214 8.30682C31.118 8.59042 31.3454 8.82319 31.6291 8.82654C31.6311 8.82654 31.6331 8.82654 31.6351 8.82654Z" fill="white"/>
<path d="M36.0075 7.20714L33.9681 8.89204C33.7494 9.07264 33.7186 9.39637 33.8992 9.6151C34.0795 9.83327 34.4026 9.86525 34.6223 9.68399L36.6617 7.99909C36.8804 7.81849 36.9112 7.49475 36.7306 7.27603C36.5487 7.05597 36.2249 7.02721 36.0075 7.20714Z" fill="white"/>
<path d="M35.1112 11.8546C35.1206 12.1328 35.3487 12.3516 35.6249 12.3516C35.6939 12.3516 38.1935 12.2712 38.1245 12.27C38.4081 12.2606 38.6302 12.0231 38.6215 11.7395C38.6122 11.4619 38.3841 11.2426 38.1078 11.2426C38.1025 11.2426 38.0971 11.2426 38.0911 11.2426L35.6082 11.3242C35.3246 11.3335 35.1019 11.5716 35.1112 11.8546Z" fill="white"/>
<path d="M18.824 19.6002H19.9959L19.1076 21.0069C18.8073 21.4838 18.9043 22.1112 19.333 22.467L19.8006 22.8543C20.2817 23.2548 21.0108 23.1485 21.3571 22.5981L22.5309 20.7393L23.6179 22.5954C23.9452 23.1553 24.6709 23.2964 25.173 22.9005L25.6466 22.5272C26.08 22.1854 26.1944 21.5647 25.9121 21.0831L25.0459 19.6002H26.5108C27.0974 19.6002 27.575 19.1066 27.575 18.4992V17.7809C27.575 17.1735 27.0974 16.6799 26.5108 16.6799H25.0927L25.89 15.415C26.1917 14.9381 26.0947 14.31 25.664 13.9535L25.1978 13.5683C24.7145 13.1674 23.9886 13.2741 23.6419 13.8251L22.5584 15.5408L21.4594 13.9636C21.1098 13.4631 20.4284 13.3565 19.9517 13.7328L19.4795 14.104C19.0213 14.4659 18.9264 15.1508 19.2682 15.6324L20.0139 16.6799H18.824C18.2374 16.6799 17.7605 17.1735 17.7605 17.7809V18.4992C17.7605 19.1066 18.2374 19.6002 18.824 19.6002Z" fill="white"/>
<path d="M46.5583 43.7703C46.0595 43.5231 45.7185 43.4642 45.4504 43.4094C45.5315 43.1789 45.9953 31.2593 45.4461 26.2214C45.4461 24.5827 44.1243 23.2469 42.4903 23.2249C39.5837 22.7791 36.9301 22.7648 34.5858 23.1694C34.5428 20.2217 34.4719 17.3131 34.3654 14.4385C34.3654 11.872 32.4484 9.78108 30.0853 9.76034C24.6479 9.03126 20.4949 9.03193 17.0267 9.76101C15.6744 9.7794 14.4723 10.4772 13.6924 11.5428C13.0621 12.1955 12.5626 12.9848 12.2427 13.8077C11.1579 16.5981 11.6301 18.6326 11.6695 27.8117C9.63545 27.6535 6.26851 27.8546 5.60347 28.0445C4.34595 28.0346 3.63707 29.0054 3.3249 30.2227C3.02913 31.376 3.07311 32.6544 3.10517 33.8902C3.29402 41.1685 2.73443 42.7377 3.76586 43.6481C3.78759 43.6673 3.81761 43.683 3.8526 43.6962C4.65939 44.34 6.49697 44.4678 7.13792 44.4902C20.1771 44.9459 33.2262 45.1174 46.2728 45.0046C46.954 44.9987 47.1687 44.0727 46.5583 43.7703ZM4.76796 42.7372C4.56571 38.603 4.4247 33.9856 4.80567 30.4066C4.80567 29.5933 5.39027 29.0227 6.29325 28.9538C8.1073 28.825 9.81496 28.6898 11.6733 28.8424C11.6816 32.8535 11.6482 36.8656 11.6613 40.9224C11.6631 41.4861 11.5374 42.358 11.7001 42.9551C9.40546 42.8984 7.09361 42.8274 4.76796 42.7372ZM18.6665 43.0879L18.5946 34.6908C18.5904 34.1548 19.0234 33.7343 19.5424 33.7343H23.6732L23.7589 43.1233C22.0569 43.12 20.3589 43.1079 18.6665 43.0879ZM24.7863 43.1207L24.7007 33.7343H29.199C29.7214 33.7343 30.1468 34.1597 30.1468 34.6828V42.8972C30.1468 42.9662 30.1614 43.0316 30.1861 43.0917C28.3848 43.1106 26.5849 43.1205 24.7863 43.1207ZM33.3939 43.0513C32.6422 43.0638 31.8896 43.0705 31.1373 43.0797C31.1592 43.0227 31.1742 42.962 31.1742 42.8972V34.6828C31.1742 33.5931 30.2879 32.7069 29.199 32.7069H19.5424C18.4452 32.7069 17.5575 33.5989 17.5672 34.7001L17.6389 43.0728C16.3318 43.0546 15.0281 43.0324 13.7306 43.0041C13.3669 34.0092 13.06 22.7732 13.7934 14.4385C13.7934 12.4252 15.2689 10.7877 17.0823 10.7877C17.7301 10.7877 20.7826 9.54781 29.9816 10.7831C30.0043 10.7864 30.0271 10.7877 30.0498 10.7877C31.8631 10.7877 33.338 12.4252 33.3387 14.4572C33.675 23.5458 33.6924 32.9071 33.3939 43.0513ZM44.4717 42.7451C41.3615 42.8663 38.0619 42.9615 34.4226 43.0342C34.6144 36.4767 34.6734 30.2457 34.6009 24.2085C38.4856 23.4966 42.1733 24.2523 42.4495 24.2523C43.5351 24.2523 44.4187 25.1359 44.4213 26.277C44.8582 30.3068 44.6923 36.5886 44.4717 42.7451Z" fill="white"/>
</svg>
