<svg width="50" height="50" viewBox="0 0 50 50" fill="none" xmlns="http://www.w3.org/2000/svg">
<path d="M9.79642 45.0892C12.704 45.6531 15.6356 43.549 18.2219 41.7622C23.7769 37.9261 21.3079 28.9688 20.8206 22.8389C24.7851 22.0915 25.4027 20.5733 26.8698 19.6371C26.9568 19.5822 27.0872 19.4986 27.1675 19.4913C27.3708 19.4705 27.3715 19.4719 27.5534 19.6351C28.2054 20.2196 29.0798 20.7579 29.986 20.9528C29.9261 21.5428 29.9911 20.8461 29.0141 31.6829C28.5368 36.9784 28.9621 39.0197 33.2385 42.7373C34.6481 43.9628 36.1837 45.1619 38.0088 45.5588C39.7681 45.9414 41.8012 45.5292 43.3316 44.1822C45.0982 42.9358 46.2684 40.8192 46.5469 38.2988C46.8098 35.9216 46.2894 33.4628 45.8707 31.4869C45.1563 28.1111 44.458 25.0791 43.145 22.1601C42.4427 20.5983 38.824 14.2305 35.2268 13.963C34.3757 13.9003 33.6153 14.1762 32.9439 14.7698C32.1847 15.2156 31.5521 15.9077 31.1063 16.6885C30.2941 16.6616 29.1926 16.4863 28.8009 16.1054C28.6311 15.9418 28.6832 16.8171 29.0184 6.25471C29.8458 5.65941 29.6258 4.30505 26.6973 4.30505C23.8026 4.30505 23.5499 5.6323 24.3516 6.23615C24.367 6.40893 24.3801 6.58208 24.3939 6.75516C24.0412 9.38813 24.9523 11.948 24.2411 14.6193C23.8644 16.0342 22.955 17.381 21.5971 17.9286C21.2556 18.0663 20.8896 18.1612 20.5824 18.3586C20.4715 17.5875 20.2608 16.8342 19.8446 16.1315C18.7268 14.2456 17.0812 13.5991 15.0272 14.6139C13.7469 15.1208 12.4009 16.1471 11.7228 16.683C6.93617 20.4658 5.11531 26.4083 3.9462 32.34C3.25269 35.8584 2.80536 39.6553 5.04713 42.5215C6.18723 43.9794 7.95541 44.8966 9.79642 45.0892ZM36.3465 33.2334C35.5302 32.1874 34.7766 31.0791 34.1015 29.9399C34.8992 29.4337 35.0879 29.1112 35.7525 28.6589C36.0555 28.4529 36.6428 28.1305 37.1793 28.2857C37.4535 28.3646 37.7364 28.2081 37.816 27.9365C37.8956 27.6643 37.7391 27.3794 37.4669 27.2998C37.1338 27.2013 36.7727 27.1972 36.402 27.2722L36.4809 23.0504C36.4863 22.7668 36.2602 22.5327 35.9766 22.5273C35.6997 22.5113 35.4589 22.7474 35.4535 23.0316C35.3793 27.8564 35.3396 27.4834 35.3959 27.6841C34.5282 28.1996 34.3249 28.5646 33.6275 29.0301C32.8079 29.5787 31.7491 29.7871 30.7811 29.6005C31.1798 26.5783 31.809 23.8536 31.9901 20.9735C32.0758 19.3734 32.0916 17.6574 32.8971 16.4044C33.4403 15.5588 34.1569 14.9113 35.1505 14.9877C37.9899 15.1984 41.3651 20.7073 42.2086 22.5815C43.4794 25.4075 44.1637 28.3827 44.866 31.6996C45.2901 33.7029 45.7703 35.9731 45.5262 38.1864C45.2673 40.5248 44.1684 42.4652 42.5102 43.5107C39.7912 45.2284 37.1144 43.5107 33.3412 40.6981C30.3043 38.4335 30.2622 34.393 30.6595 30.6202C31.4872 30.766 32.2761 30.7184 33.1727 30.3909C33.4809 30.8772 34.1408 32.0775 35.5358 33.8648C35.7099 34.0881 36.0327 34.129 36.2569 33.9544C36.4809 33.7799 36.5204 33.4568 36.3465 33.2334ZM28.1473 5.53228C28.1368 5.54323 28.1299 5.55699 28.1204 5.56886C27.3664 5.81789 26.1063 5.82756 25.315 5.58127C25.31 5.55928 25.3032 5.53838 25.2956 5.5176C26.1038 5.25883 27.4057 5.27764 28.1473 5.53228ZM23.4913 18.3428C24.2067 17.8945 25.2607 17.4542 25.4317 16.3663C25.5992 15.299 25.5277 14.0622 25.5655 13.0292C25.6404 10.915 25.5857 8.77922 25.4169 6.66327C26.2263 6.82909 27.1654 6.82931 27.9764 6.66348L27.6725 15.8619C27.6298 17.1665 29.3473 17.5814 30.6429 17.6878C30.3792 18.4048 30.2193 19.1571 30.1093 19.9209C29.4483 19.7545 28.7637 19.3404 28.239 18.8699C27.8952 18.5615 27.6217 18.413 27.0685 18.4686C26.7427 18.5 26.4772 18.6692 26.318 18.7702C24.6866 19.8112 24.3635 21.0862 20.7581 21.8025C20.6972 20.5278 20.7327 20.943 20.6975 19.8358C21.6541 19.3948 22.5944 18.8978 23.4913 18.3428ZM6.4463 31.5077C7.26835 28.2181 8.0603 25.2697 9.43284 22.4919C10.5731 20.1837 14.1593 15.1563 16.8407 15.1563C17.6694 15.1563 18.363 15.6479 18.9603 16.6552C19.7205 17.9382 19.673 19.626 19.7015 21.2544C19.7627 23.546 20.1186 25.8419 20.3949 28.0606C20.3135 28.08 20.2348 28.1123 20.1683 28.1726C19.4185 28.8529 18.3764 29.2201 17.3577 29.1572C16.7515 29.1188 16.0849 28.9264 15.4086 28.877C15.32 28.8708 15.2395 28.881 15.1535 28.8804C15.1024 28.6804 15.2634 29.0358 12.7685 24.8838C12.6221 24.6416 12.3063 24.5627 12.0629 24.7105C11.8207 24.8577 11.7425 25.1734 11.8896 25.4162L14.0778 29.0307C13.7198 29.1513 13.4085 29.3345 13.1685 29.586C12.8555 29.9139 13.0927 30.4542 13.5404 30.4542C14.1427 30.4542 13.7972 29.5899 16.234 30.0335C16.7506 30.1268 16.9752 30.1649 17.404 30.1837C17.3908 31.5121 17.2953 32.8481 17.1142 34.1564C17.072 34.462 17.3084 34.7404 17.6239 34.7404C17.8761 34.7404 18.0968 34.5544 18.1323 34.2969C18.3228 32.9198 18.4244 31.5126 18.4345 30.1147C19.1914 29.9814 19.9126 29.6707 20.5282 29.2037C21.0037 33.5521 21.1324 38.5033 17.6386 40.9168C13.7658 43.5923 11.0301 45.207 8.374 43.397C6.75465 42.292 5.72658 40.3121 5.55268 37.9657C5.38813 35.745 5.94999 33.4942 6.4463 31.5077Z" fill="white"/>
<path d="M34.7766 9.28822L34.1947 12.3684C34.1363 12.6806 34.373 12.9778 34.7003 12.9778C34.9425 12.9778 35.1579 12.8059 35.2047 12.5597L35.7866 9.47952C35.8388 9.20059 35.6555 8.93171 35.3772 8.87886C35.0923 8.82402 34.8294 9.00996 34.7766 9.28822Z" fill="white"/>
<path d="M37.3417 13.3804C37.5691 13.3804 37.7778 13.2279 37.838 12.9965C38.1765 11.7049 38.6788 10.4588 39.3316 9.29358C39.4701 9.04609 39.3818 8.73306 39.1343 8.5946C38.8895 8.45547 38.5745 8.54376 38.4353 8.79192C37.7397 10.0327 37.2046 11.3597 36.8441 12.737C36.7594 13.0615 37.003 13.3804 37.3417 13.3804Z" fill="white"/>
<path d="M39.9036 14.9389C41.2019 14.0741 42.4213 13.0774 43.5283 11.9785C43.7296 11.7785 43.7309 11.4534 43.5309 11.2521C43.3309 11.0507 43.0059 11.0494 42.8045 11.2494C41.745 12.3022 40.5772 13.2553 39.3337 14.0841C39.0976 14.2413 39.0341 14.5603 39.1912 14.7964C39.3482 15.0318 39.6662 15.0966 39.9036 14.9389Z" fill="white"/>
</svg>
