<svg width="16" height="16" viewBox="0 0 16 16" fill="none" xmlns="http://www.w3.org/2000/svg">
<path d="M9.08203 6.40039C8.67598 6.40039 8.36133 6.71504 8.36133 7.10352C8.36133 7.49199 8.67598 7.80664 9.08203 7.80664C9.45293 7.80664 9.76758 7.49199 9.76758 7.10352C9.76758 6.71504 9.45293 6.40039 9.08203 6.40039ZM4.16016 6.40039C3.7541 6.40039 3.43945 6.71504 3.43945 7.10352C3.43945 7.49199 3.7541 7.80664 4.16016 7.80664C4.53105 7.80664 4.8457 7.49199 4.8457 7.10352C4.8457 6.71504 4.53105 6.40039 4.16016 6.40039Z" fill="#776ACA"/>
<path d="M14.7246 5.06427C13.8791 3.90411 12.6979 3.12891 11.4023 2.77911V2.78087C11.1018 2.44688 10.7625 2.13926 10.3828 1.86504C7.50528 -0.226753 3.46583 0.411333 1.36524 3.28887C-0.327529 5.62677 -0.255459 8.77149 1.47071 11.0057L1.48477 13.3365C1.48477 13.3928 1.49356 13.449 1.51114 13.5018C1.60431 13.7988 1.92071 13.9623 2.21602 13.8692L4.44141 13.1678C5.03028 13.377 5.63848 13.4965 6.24317 13.5299L6.23438 13.5369C7.80059 14.6777 9.85371 15.0205 11.7363 14.3983L13.9705 15.126C14.0268 15.1436 14.0848 15.1541 14.1445 15.1541C14.4557 15.1541 14.707 14.9027 14.707 14.5916V12.2361C16.2557 10.1338 16.2961 7.22813 14.7246 5.06427ZM4.68751 11.9197L4.47657 11.8318L2.73634 12.3768L2.71876 10.5486L2.57813 10.3904C1.09102 8.57638 0.992587 5.96251 2.38477 4.04473C4.0793 1.7209 7.32774 1.20762 9.64453 2.88458C11.9684 4.57384 12.4834 7.817 10.8047 10.1268C9.39668 12.0586 6.87598 12.7723 4.68751 11.9197ZM13.5645 11.6209L13.4238 11.7967L13.4414 13.6248L11.7187 13.0447L11.5078 13.1326C10.5234 13.4983 9.47402 13.5281 8.50196 13.2557L8.49844 13.2539C9.79746 12.8549 10.9752 12.0463 11.8242 10.8826C13.1672 9.03165 13.3852 6.70606 12.6047 4.72325L12.6152 4.73028C13.0195 5.02032 13.3904 5.38243 13.7051 5.82013C14.9812 7.57091 14.9092 9.9545 13.5645 11.6209Z" fill="#776ACA"/>
</svg>
