<svg width="50" height="50" viewBox="0 0 50 50" fill="none" xmlns="http://www.w3.org/2000/svg">
<path d="M9.39643 32.8901C10.3697 32.8901 10.7852 31.7629 10.158 31.0821C10.062 30.9777 9.93254 30.9222 9.80144 30.9169C8.87937 30.2753 7.84119 31.1594 8.16904 32.072C8.34623 32.5662 8.88447 32.8901 9.39643 32.8901Z" fill="white"/>
<path d="M47.6165 7.48937C47.3487 7.1463 47.274 7.38266 45.343 7.28419C44.7147 7.14577 42.8448 7.42304 38.5412 5.71818C36.5167 4.91846 34.2672 4.08593 32.1062 5.02456C31.0521 5.4801 33.1396 7.91519 30.8534 26.0414C30.8228 26.2818 30.9526 26.4252 31.154 26.7409C31.4369 27.4531 32.3376 28.2484 32.9461 28.73C32.8447 29.0197 32.9669 29.3359 32.7313 30.7991C32.6363 31.3931 32.9992 31.9456 33.5758 32.0847C33.7036 32.1153 33.8341 32.1504 33.9641 32.1844C32.5481 33.0549 32.0842 33.4425 30.7538 34.7301C29.7485 35.7025 29.1659 36.8675 29.0964 38.0215C27.4828 38.0118 24.2589 37.8525 22.6105 37.3922C25.2284 36.4533 26.8896 34.9858 29.2137 33.496C29.8558 33.0841 30.4006 32.655 30.616 31.9262C31.2072 29.9427 28.551 28.1489 25.4108 29.7115C24.7871 30.006 24.3055 30.3128 23.8784 30.559C22.3783 31.4442 22.6025 31.2125 22.3857 31.3596C20.919 31.8238 20.5004 31.5497 18.732 31.3503C16.4585 31.0402 14.6361 31.891 12.2887 31.9469C12.2655 31.5927 12.2441 31.2384 12.2048 30.8834C12.0954 29.9021 11.2426 29.0848 10.1764 28.9396C7.69446 28.6022 8.08554 28.8661 6.05976 28.5871C4.68522 28.3965 3.81735 28.3109 3.34178 28.7156C3.1575 28.8727 3.05282 29.0941 3.0468 29.339C2.9665 32.7739 2.26976 35.0438 2.27592 37.5976C2.2771 38.097 2.85966 38.1406 2.79096 38.11C3.07456 38.1093 3.30399 37.8785 3.30332 37.5949C3.29773 35.4112 3.983 32.6733 4.07119 29.4794C4.61984 29.3448 6.5295 29.7517 7.39317 29.7517C8.14131 29.7517 9.03092 29.8212 10.0379 29.9577C10.6342 30.0386 11.1265 30.4854 11.1834 30.9971C11.5904 34.6619 11.0901 38.2972 9.73626 41.54C8.07783 41.1593 6.4784 40.721 4.76682 40.34C4.14704 40.2066 3.79019 41.1754 4.64835 41.3686L5.23073 42.0908C5.79284 42.7879 6.41409 42.8307 10.2389 43.5043C10.6903 43.5837 11.1003 43.3633 11.1929 42.9768C11.4073 42.0823 11.6143 41.1628 11.8314 40.2775C16.2289 43.3645 21.232 45.1546 26.1094 45.3695C31.056 45.5874 35.854 44.1907 39.7771 41.391C40.3935 40.951 40.9996 40.465 41.4039 39.7822C41.6525 39.3623 41.904 38.6992 41.8471 38.1069C42.4229 37.0021 41.7079 36.022 40.7868 35.8955C40.7203 35.8712 40.6491 35.8582 40.5746 35.8632C40.2601 35.8778 39.5614 35.4042 39.3014 34.7047C39.2244 34.5 39.1288 34.2452 38.9054 34.0405C38.2665 33.452 37.4225 33.8838 36.9051 33.9843C36.4493 34.0686 35.9439 33.8465 35.7014 33.4512C35.6717 33.4024 35.6142 33.2312 35.576 33.1181C35.509 32.919 35.4328 32.6999 35.3275 32.5059C35.4956 32.5376 35.614 32.575 35.7881 32.575C36.2168 32.575 36.6141 32.3395 36.8098 31.9549C37.0565 31.4671 37.3075 30.9831 37.4621 30.445C38.8466 30.4461 40.2184 29.9994 41.1796 29.0187C42.466 27.7062 42.5467 26.8381 46.0941 15.1522C46.4107 14.1094 47.9236 9.16882 47.6944 7.98585C47.7529 7.78946 47.7236 7.62656 47.6165 7.48937ZM40.5863 36.9006C40.9087 36.9105 41.0624 37.1929 41.0254 37.4116C40.886 38.2466 38.908 39.3285 38.2699 39.7253C34.3011 42.1251 29.5497 43.3343 24.7633 42.7633C24.7616 42.7633 24.6894 42.7506 24.6877 42.75C20.5751 42.2595 16.0492 40.2632 11.932 38.4044C11.9004 38.37 11.863 38.3416 11.8222 38.3176C12.2041 36.5864 12.3701 34.792 12.3316 32.9761C14.5489 32.9331 16.5174 32.1106 18.5611 32.3643C21.949 32.9064 22.2823 32.6925 24.8124 31.2025C26.3419 30.2913 26.726 30.3191 27.5033 30.1637C27.6692 30.1893 28.0903 30.0407 28.8571 30.359C29.3517 30.5506 29.4749 30.8117 29.5919 30.9958C29.5973 31.0205 29.604 31.0439 29.6126 31.0673C29.8774 31.7818 29.25 32.2515 28.6588 32.6312C26.1881 34.2163 24.2685 35.9052 21.5674 36.6679C21.5189 36.6815 21.4791 36.7085 21.4385 36.7339C20.7623 36.5622 20.0195 37.8042 22.6503 38.4651C24.379 38.8997 29.0918 39.2638 32.2637 38.8892C35.5903 38.4965 36.29 38.1411 38.9699 37.3274C39.4419 37.2352 40.1284 36.8831 40.5863 36.9006ZM37.0974 34.993C37.2439 34.9656 37.3967 34.9221 37.5499 34.8779C38.7498 34.5338 37.85 35.0087 39.1122 36.2123C38.667 36.3665 39.1591 36.1861 37.4469 36.724C35.6319 37.2916 34.8045 37.5553 32.1433 37.8685C31.4741 37.9481 30.7993 37.9904 30.1279 38.0101C30.2025 37.1366 30.6709 36.2401 31.4681 35.4686C33.0518 33.9368 33.291 33.8335 34.4687 33.0793C34.5889 33.3623 34.6793 33.7488 34.8252 33.9877C35.2904 34.7462 36.2272 35.1609 37.0974 34.993ZM35.8937 31.4894C35.8109 31.651 35.3458 31.4547 33.8162 31.0854C33.655 31.0476 33.8181 30.9566 33.9086 29.3878C34.9403 30.0138 35.6571 30.2319 36.4071 30.3591C36.2635 30.7675 36.0677 31.1415 35.8937 31.4894ZM40.804 27.3564C40.3354 28.7838 38.0235 29.2186 36.0747 29.0192C34.2915 28.8366 32.7129 27.3952 31.8942 25.9999C32.0194 25.0006 32.1334 24.0312 32.2369 23.0873C34.8457 24.7626 38.1916 25.5697 41.5531 25.0111C41.3051 25.7947 41.0587 26.5801 40.804 27.3564ZM41.8878 23.9633C41.8187 23.9468 41.7459 23.9424 41.6719 23.9578C38.484 24.5717 35.0076 23.8165 32.3581 21.9392C32.8057 17.5818 33.0162 13.785 32.9993 10.284C37.1635 10.5794 41.2847 11.3784 45.254 12.6626C44.1483 16.4612 43.0371 20.2815 41.8878 23.9633ZM45.5422 11.6771C41.4754 10.3632 37.253 9.54818 32.987 9.2527C32.9662 8.08936 32.9206 6.95527 32.849 5.84192C33.4788 5.64168 34.1422 5.62002 34.7485 5.67788L35.0847 7.58302C35.1289 7.83251 35.3456 8.00775 35.5901 8.00775C35.912 8.00775 36.1518 7.71746 36.0968 7.40509L35.8249 5.86467C37.1047 6.18463 38.6587 6.93161 40.1808 7.40643C40.2269 7.89468 40.1518 8.20299 40.1027 8.69937C40.0727 9.0007 40.3091 9.26391 40.6144 9.26391C40.8752 9.26391 41.0986 9.06592 41.1247 8.80104C41.1371 8.67864 41.1511 8.5656 41.1648 8.45791C41.1954 8.21427 41.2212 7.97372 41.222 7.69907C42.3461 7.9861 43.4978 8.18158 44.6574 8.27497L44.5561 9.08598C44.5181 9.39076 44.7546 9.66323 45.0664 9.66323C45.3219 9.66323 45.543 9.47327 45.5754 9.21307L45.6858 8.33015C45.9634 8.3381 46.2411 8.34203 46.5186 8.33818C46.1907 9.44835 45.8668 10.563 45.5422 11.6771Z" fill="white"/>
<path d="M39.9238 21.5365C42.3212 18.5335 42.1536 14.5044 40.8956 12.8511C39.6426 11.2047 37.3338 11.2164 36.0867 13.8965C35.25 15.6965 35.0811 17.6376 35.0256 19.3211C34.9928 20.3044 34.9436 21.79 35.7677 22.5973C36.6013 23.4131 38.3808 23.4717 39.9238 21.5365ZM36.053 19.3325C36.1045 17.7747 36.2593 15.962 37.0185 14.33C38.2205 11.7442 40.3762 12.533 40.7107 15.2751C40.9528 17.2443 40.3585 19.3452 39.1208 20.8957C38.7017 21.4214 38.0419 22.0562 37.2777 22.0976C36.9272 22.1177 36.6673 22.0401 36.4867 21.8635C35.9854 21.3726 36.0255 20.1586 36.053 19.3325Z" fill="white"/>
<path d="M22.8911 24.1712C22.6701 23.994 22.3467 24.0281 22.1688 24.2488C21.9905 24.4696 22.0249 24.7926 22.2457 24.9712C25.3436 27.4181 25.226 27.4949 25.5543 27.4949C26.0343 27.4949 26.2557 26.8874 25.8773 26.5812L22.8911 24.1712Z" fill="white"/>
<path d="M27.9896 25.7229C28.2532 25.6179 28.3819 25.3189 28.2769 25.0554C27.7478 23.7257 27.3238 22.3411 27.0171 20.9405C26.9565 20.6635 26.681 20.487 26.4057 20.5485C26.1285 20.6087 25.9529 20.8829 26.0138 21.1599C26.3322 22.6153 26.7726 24.0534 27.3224 25.4353C27.4282 25.7016 27.7297 25.8264 27.9896 25.7229Z" fill="white"/>
<path d="M29.3665 20.901L29.0437 23.3866C29.0073 23.6682 29.2056 23.9257 29.4872 23.9625C29.7793 23.9974 30.0272 23.7922 30.0624 23.519L30.3852 21.0335C30.4216 20.7519 30.2233 20.4944 29.9421 20.4576C29.6595 20.4268 29.4029 20.6194 29.3665 20.901Z" fill="white"/>
</svg>
