<svg width="50" height="50" viewBox="0 0 50 50" fill="none" xmlns="http://www.w3.org/2000/svg">
<g clip-path="url(#clip0_18_850)">
<path d="M24.9999 3.33325C15.7952 3.33325 8.33325 10.7952 8.33325 19.9999C8.33325 29.2047 15.7952 36.6666 24.9999 36.6666C34.2047 36.6666 41.6666 29.2047 41.6666 19.9999C41.656 10.7996 34.2003 3.34381 24.9999 3.33325ZM24.9999 34.9999C16.7156 34.9999 9.99992 28.2842 9.99992 19.9999C9.99992 11.7156 16.7156 4.99992 24.9999 4.99992C33.2842 4.99992 39.9999 11.7156 39.9999 19.9999C39.9903 28.2802 33.2802 34.9903 24.9999 34.9999Z" fill="white"/>
<path d="M24.9999 2.1134e-06C15.4238 -0.00437225 7.18929 6.7823 5.3646 16.183C3.53991 25.5838 8.63749 34.9582 17.5199 38.5367L20.0541 41.9867C17.2316 42.3558 12.4999 43.3442 12.4999 45.8333C12.4999 48.6967 18.9791 50 24.9999 50C31.0208 50 37.4999 48.6967 37.4999 45.8333C37.4999 43.3558 32.8108 42.3642 29.9433 41.99L32.4799 38.5367C41.3624 34.9582 46.46 25.5838 44.6353 16.183C42.8106 6.7823 34.5761 -0.00437225 24.9999 2.1134e-06ZM35.8333 45.8333C35.8333 46.5833 32.1474 48.3333 24.9999 48.3333C17.8524 48.3333 14.1666 46.5833 14.1666 45.8333C14.1666 45.275 16.2999 44.0167 21.1908 43.5342L22.6174 45.475C23.1818 46.2248 24.0661 46.6652 25.0045 46.6639C25.9429 46.6626 26.826 46.2197 27.3883 45.4683L28.8049 43.5342C33.6999 44.0167 35.8333 45.275 35.8333 45.8333ZM31.6491 37.0725C30.5315 37.508 29.3732 37.8313 28.1916 38.0375C27.891 38.0803 27.6375 38.2831 27.5298 38.567C27.4221 38.8508 27.4774 39.1708 27.674 39.4022C27.8706 39.6335 28.1774 39.7396 28.4749 39.6792C28.9091 39.6042 29.3433 39.5083 29.7758 39.4017L26.0508 44.4742C25.7935 44.7874 25.41 44.9696 25.0046 44.9711C24.5993 44.9725 24.2144 44.7931 23.9549 44.4817L20.2241 39.3983C20.6566 39.505 21.0908 39.6008 21.5249 39.6758C21.8225 39.7363 22.1293 39.6302 22.3259 39.3988C22.5225 39.1675 22.5777 38.8475 22.4701 38.5636C22.3624 38.2798 22.1089 38.0769 21.8083 38.0342C20.6266 37.8279 19.4684 37.5047 18.3508 37.0692C10.1306 33.8701 5.35387 25.2707 6.98138 16.6014C8.60888 7.93215 16.1792 1.65076 24.9999 1.65076C33.8207 1.65076 41.391 7.93215 43.0185 16.6014C44.646 25.2707 39.8693 33.8701 31.6491 37.0692V37.0725Z" fill="white"/>
<path d="M32.4999 24.285V23.75C32.4999 21.6789 30.821 20 28.7499 20C26.6789 20 24.9999 21.6789 24.9999 23.75V27.5C24.9999 28.4205 24.2537 29.1667 23.3333 29.1667C22.4128 29.1667 21.6666 28.4205 21.6666 27.5V20.7583C24.0693 20.3501 25.8287 18.2705 25.8333 15.8333V11.6667C25.8333 10.7462 25.0871 10 24.1666 10H23.3333C22.873 10 22.4999 10.3731 22.4999 10.8333C22.4999 11.2936 22.873 11.6667 23.3333 11.6667H24.1666V15.8333C24.1666 17.6743 22.6742 19.1667 20.8333 19.1667C18.9923 19.1667 17.4999 17.6743 17.4999 15.8333V11.6667H18.3333C18.7935 11.6667 19.1666 11.2936 19.1666 10.8333C19.1666 10.3731 18.7935 10 18.3333 10H17.4999C16.5794 10 15.8333 10.7462 15.8333 11.6667V15.8333C15.8378 18.2705 17.5972 20.3501 19.9999 20.7583V27.5C19.9999 29.341 21.4923 30.8333 23.3333 30.8333C25.1742 30.8333 26.6666 29.341 26.6666 27.5V23.75C26.6666 22.5994 27.5993 21.6667 28.7499 21.6667C29.9005 21.6667 30.8333 22.5994 30.8333 23.75V24.285C29.208 24.7046 28.1483 26.2673 28.3598 27.9325C28.5713 29.5977 29.988 30.8458 31.6666 30.8458C33.3451 30.8458 34.7618 29.5977 34.9734 27.9325C35.1849 26.2673 34.1252 24.7046 32.4999 24.285ZM31.6666 29.1667C30.7461 29.1667 29.9999 28.4205 29.9999 27.5C29.9999 26.5795 30.7461 25.8333 31.6666 25.8333C32.5871 25.8333 33.3333 26.5795 33.3333 27.5C33.3333 28.4205 32.5871 29.1667 31.6666 29.1667Z" fill="white"/>
</g>
<defs>
<clipPath id="clip0_18_850">
<rect width="50" height="50" fill="white"/>
</clipPath>
</defs>
</svg>
