<svg width="16" height="16" viewBox="0 0 16 16" fill="none" xmlns="http://www.w3.org/2000/svg">
<path d="M7.86523 8.30371C8.8598 8.30371 9.81362 7.90862 10.5169 7.20536C11.2201 6.5021 11.6152 5.54827 11.6152 4.55371C11.6152 3.55915 11.2201 2.60532 10.5169 1.90206C9.81362 1.1988 8.8598 0.803711 7.86523 0.803711C6.87067 0.803711 5.91685 1.1988 5.21358 1.90206C4.51032 2.60532 4.11523 3.55915 4.11523 4.55371C4.11523 5.54827 4.51032 6.5021 5.21358 7.20536C5.91685 7.90862 6.87067 8.30371 7.86523 8.30371ZM10.3652 4.55371C10.3652 5.21675 10.1018 5.85264 9.633 6.32148C9.16416 6.79032 8.52828 7.05371 7.86523 7.05371C7.20219 7.05371 6.56631 6.79032 6.09747 6.32148C5.62863 5.85264 5.36523 5.21675 5.36523 4.55371C5.36523 3.89067 5.62863 3.25478 6.09747 2.78594C6.56631 2.3171 7.20219 2.05371 7.86523 2.05371C8.52828 2.05371 9.16416 2.3171 9.633 2.78594C10.1018 3.25478 10.3652 3.89067 10.3652 4.55371ZM15.3652 14.5537C15.3652 15.8037 14.1152 15.8037 14.1152 15.8037H1.61523C1.61523 15.8037 0.365234 15.8037 0.365234 14.5537C0.365234 13.3037 1.61523 9.55371 7.86523 9.55371C14.1152 9.55371 15.3652 13.3037 15.3652 14.5537ZM14.1152 14.5487C14.114 14.2412 13.9227 13.3162 13.0752 12.4687C12.2602 11.6537 10.7265 10.8037 7.86523 10.8037C5.00273 10.8037 3.47023 11.6537 2.65523 12.4687C1.80773 13.3162 1.61773 14.2412 1.61523 14.5487H14.1152Z" fill="#776ACA"/>
</svg>
