<svg width="50" height="50" viewBox="0 0 50 50" fill="none" xmlns="http://www.w3.org/2000/svg">
<path d="M7.4865 21.7048C7.38683 21.9703 7.52128 22.266 7.78749 22.3657C9.22971 22.9062 10.7675 23.1362 12.2115 23.0807C12.4951 23.07 12.7158 22.8319 12.7051 22.5483C12.6951 22.2646 12.4563 22.0352 12.1727 22.0546C10.8068 22.1035 9.42089 21.88 8.14735 21.4038C7.88582 21.3055 7.58549 21.4386 7.4865 21.7048Z" fill="white"/>
<path d="M14.0648 15.4442C14.1444 15.489 14.2314 15.5104 14.3163 15.5104C14.8443 15.5104 15.0275 14.8069 14.5692 14.5492C13.2147 13.786 12.0334 12.7031 11.1539 11.4182C10.994 11.1847 10.6743 11.1232 10.4395 11.2844C10.2054 11.4449 10.1459 11.7647 10.3057 11.9988C11.2743 13.4128 12.5739 14.604 14.0648 15.4442Z" fill="white"/>
<path d="M21.5135 5.62166C21.2266 5.58286 20.9757 5.78821 20.9416 6.06913C20.7751 7.43699 20.961 8.83495 21.4787 10.1118C21.5597 10.3118 21.7523 10.4329 21.955 10.4329C22.3169 10.4329 22.5684 10.0657 22.4312 9.72656C21.9784 8.6102 21.8165 7.38816 21.961 6.19355C21.9958 5.91128 21.7951 5.65577 21.5135 5.62166Z" fill="white"/>
<path d="M36.7706 8.41826C36.9626 8.20957 36.9492 7.88449 36.7405 7.69252C36.5318 7.50056 36.2067 7.51393 36.0148 7.72262L33.3894 10.5767C33.0855 10.9082 33.325 11.4382 33.7673 11.4382C34.1835 11.4382 34.1429 11.1883 36.7706 8.41826Z" fill="white"/>
<path d="M40.9732 16.7852C40.303 17.3116 39.4676 17.6561 38.6201 17.7551C38.3378 17.7885 38.1365 18.0434 38.1693 18.325C38.2005 18.5908 38.4362 18.8061 38.7392 18.7758C39.788 18.6527 40.7792 18.244 41.6073 17.5932C41.8307 17.418 41.8695 17.0949 41.6943 16.8722C41.5183 16.6488 41.1959 16.6106 40.9732 16.7852Z" fill="white"/>
<path d="M40.2374 24.8205C40.1505 25.0907 40.2983 25.3803 40.5679 25.468C41.9162 25.9042 43.5156 26.1542 44.2708 26.1542C44.541 26.1542 44.7678 25.9429 44.7831 25.6693C44.7992 25.3864 44.5825 25.1436 44.2989 25.1275C43.1384 25.0626 41.9892 24.8479 40.8849 24.4901C40.6134 24.4044 40.3257 24.5516 40.2374 24.8205Z" fill="white"/>
<path d="M46.2374 43.5197C46.5737 43.1856 46.3832 42.5653 45.9884 42.303C45.6537 42.0803 45.2396 42.0434 44.8321 42.0379L43.1377 37.0155C43.0668 36.8068 42.8715 36.6663 42.6507 36.6663H40.1155L39.3311 33.2965C39.2769 33.0638 39.0696 32.8992 38.8308 32.8992H36.719C37.2247 27.2401 37.4288 20.9226 34.4556 16.299C32.2518 12.8773 28.3846 10.9837 24.6542 11.4287L23.7759 11.4002C19.4105 12.2075 16.0892 16.0176 14.5914 20.1966C13.1453 24.2314 13.0959 28.6066 13.1093 32.8992H11.5091C11.0055 32.8992 10.9738 33.4748 10.9166 33.5803C9.34709 33.883 9.60238 35.4247 9.32119 36.4907C9.46341 36.5033 9.58401 36.5754 9.69781 36.6663H7.81955C7.6408 36.6663 7.48052 36.7626 7.38758 36.912C7.03036 36.867 6.65633 36.9611 6.37461 37.186C4.5071 38.6768 4.56379 41.5056 3.58923 43.6875C17.5158 44.5865 31.4985 44.6141 45.4284 43.7703C45.7169 43.7528 46.0324 43.7233 46.2374 43.5197ZM16.6267 19.7992C18.4059 15.6154 20.9476 13.1733 24.1817 12.5399C27.6986 11.8489 31.4811 13.5793 33.5914 16.8548C36.4071 21.2331 36.1834 27.3872 35.6872 32.8992H15.3296C15.3144 28.8679 15.03 23.5568 16.6267 19.7992ZM11.885 33.9266H38.4227L39.0607 36.6663H11.0132L11.885 33.9266ZM6.26909 41.8033L8.14931 37.6937H42.2822L43.6681 41.8033H6.26909Z" fill="white"/>
</svg>
