<svg width="50" height="50" viewBox="0 0 50 50" fill="none" xmlns="http://www.w3.org/2000/svg">
<g clip-path="url(#clip0_18_797)">
<path d="M17.803 34.7726C17.5757 34.7726 17.4242 34.6968 17.2726 34.5453L11.7423 28.4847C11.4393 28.1817 11.5151 27.7271 11.8181 27.4241C12.1211 27.1211 12.5757 27.1968 12.8787 27.4999L17.8787 32.9544L22.8787 27.4999C23.1817 27.1968 23.6363 27.1968 23.9393 27.4241C24.2423 27.7271 24.2423 28.1817 24.0151 28.4847L18.4848 34.5453C18.1817 34.6968 17.9545 34.7726 17.803 34.7726Z" fill="#FAFAFA"/>
<path d="M17.6515 26.515C12.5 26.515 8.03027 21.5908 8.03027 16.0605V13.6362C8.03027 13.1817 8.3333 12.8787 8.78785 12.8787C9.24239 12.8787 9.54543 13.1817 9.54543 13.6362V16.0605C9.54543 20.7575 13.4091 24.9999 17.6515 24.9999C21.8939 24.9999 25.7575 20.7575 25.7575 16.0605V13.6362C25.7575 13.1817 26.0606 12.8787 26.5151 12.8787C26.9697 12.8787 27.2727 13.1817 27.2727 13.6362V16.0605C27.2727 21.5908 22.803 26.515 17.6515 26.515Z" fill="#FAFAFA"/>
<path d="M28.0303 49.2424H7.2727C3.78785 49.2424 0.909058 46.3637 0.909058 42.8788V36.4394C0.909058 32.9546 3.18179 29.9243 6.51512 28.8637L11.3636 27.3485V23.4849C11.3636 23.0303 11.6666 22.7273 12.1212 22.7273C12.5757 22.7273 12.8788 23.0303 12.8788 23.4849V27.8788C12.8788 28.1818 12.6515 28.4849 12.3485 28.6364L6.96966 30.3031C4.24239 31.1364 2.49997 33.6364 2.49997 36.4394V42.8788C2.49997 45.5303 4.69694 47.7273 7.34845 47.7273H28.0303C30.6818 47.7273 32.8788 45.5303 32.8788 42.8788V36.4394C32.8788 33.6364 31.0606 31.1364 28.4091 30.3031L23.0303 28.6364C22.7272 28.5606 22.5 28.2576 22.5 27.8788V23.4849C22.5 23.0303 22.803 22.7273 23.2575 22.7273C23.7121 22.7273 24.0151 23.0303 24.0151 23.4849V27.3485L28.8636 28.8637C32.1969 29.9243 34.4697 32.9546 34.4697 36.4394V42.8788C34.3939 46.3637 31.5151 49.2424 28.0303 49.2424Z" fill="#FAFAFA"/>
<path d="M11.2879 14.5454C10.4546 14.5454 9.62124 14.4696 8.71215 14.3939C8.40912 14.3939 8.18185 14.2424 8.10609 13.9393C7.27275 12.1969 6.51518 8.18175 9.39397 5.45448C9.46972 4.84842 9.84851 3.56054 11.0606 2.49993C12.7273 1.06054 15.2273 0.454478 18.6364 0.757509C20.9091 0.984781 22.9546 1.74236 24.5455 2.87872C27.197 4.84842 29.6212 7.72721 27.197 13.7878C27.1212 14.0151 26.9697 14.1666 26.7425 14.2424C26.5152 14.3181 26.2879 14.3181 26.1364 14.2424C25.4546 13.8636 24.9243 13.6363 24.4697 13.409C23.0303 12.7272 22.2728 12.3484 21.1364 10.8333C18.9394 13.3333 15.7576 14.5454 11.2879 14.5454ZM9.31821 12.9545C14.7728 13.3333 18.4849 12.1211 20.5303 9.24236C20.6818 9.01508 20.9091 8.93933 21.1364 8.93933C21.3637 8.93933 21.5909 9.09084 21.7425 9.31811C23.0303 11.2878 23.5606 11.5151 25 12.1969C25.3031 12.3484 25.6061 12.4999 25.9849 12.6514C27.6515 7.80296 25.6061 5.83327 23.5606 4.24236C22.197 3.18175 20.3788 2.57569 18.4091 2.34842C15.4546 2.04539 13.2576 2.49993 11.9697 3.6363C10.8334 4.62115 10.7576 5.83327 10.7576 5.90902C10.7576 6.1363 10.6818 6.28781 10.5303 6.43933C8.10609 8.6363 8.93942 11.8181 9.31821 12.9545Z" fill="#FAFAFA"/>
<path d="M45.5302 15.7577H33.712C33.2575 15.7577 32.9545 15.4547 32.9545 15.0002V10.8335C32.9545 10.379 33.2575 10.0759 33.712 10.0759H45.606C46.0605 10.0759 46.3636 10.379 46.3636 10.8335V15.0002C46.2878 15.379 45.9848 15.7577 45.5302 15.7577ZM34.4696 14.2426H44.8484V11.5911H34.4696V14.2426Z" fill="#FAFAFA"/>
<path d="M43.2575 11.5909C43.0302 11.5909 42.803 11.5151 42.6514 11.2879L37.1211 3.7121H32.3484L37.1969 10.3788C37.4242 10.6818 37.3484 11.2121 37.0454 11.4394C36.7423 11.6666 36.212 11.5909 35.9848 11.2879L30.2272 3.40907C30.0757 3.1818 29.9999 2.87877 30.1514 2.65149C30.303 2.42422 30.5302 2.27271 30.8333 2.27271H37.4999C37.7272 2.27271 37.9545 2.42422 38.106 2.57574L43.8636 10.4545C44.0908 10.7576 44.0151 11.2879 43.712 11.5151C43.5605 11.5151 43.409 11.5909 43.2575 11.5909Z" fill="#FAFAFA"/>
<path d="M43.2575 11.591C43.0303 11.591 42.803 11.4394 42.6515 11.2879L39.1666 6.5152C39.0151 6.28793 38.9394 5.90914 39.1666 5.68187L41.0606 2.57581C41.2121 2.34854 41.4394 2.19702 41.7424 2.19702H48.3333C48.6363 2.19702 48.8636 2.34854 49.0151 2.57581C49.1666 2.80308 49.1666 3.10611 49.0151 3.33339L43.9394 11.2122C43.7121 11.4394 43.4848 11.591 43.2575 11.591ZM40.6818 6.06066L43.1818 9.54551L46.8939 3.78793H42.1212L40.6818 6.06066Z" fill="#FAFAFA"/>
<path d="M39.5454 31.4395C34.7727 31.4395 30.9091 27.5758 30.9091 22.8031C30.9091 18.0304 34.7727 14.1667 39.5454 14.1667C44.3181 14.1667 48.1818 18.0304 48.1818 22.8031C48.1818 27.5758 44.3181 31.4395 39.5454 31.4395ZM39.5454 15.7577C35.606 15.7577 32.4242 18.9395 32.4242 22.8789C32.4242 26.8183 35.606 30.0001 39.5454 30.0001C43.4848 30.0001 46.6666 26.8183 46.6666 22.8789C46.6666 18.9395 43.4848 15.7577 39.5454 15.7577Z" fill="#FAFAFA"/>
<path d="M42.4241 27.5001C42.2726 27.5001 42.1968 27.5001 42.0453 27.4244L39.5453 26.1365L37.0453 27.4244C36.8181 27.5759 36.515 27.5001 36.212 27.3486C35.9847 27.1971 35.8332 26.8941 35.909 26.591L36.3635 23.788L34.3181 21.8183C34.0908 21.591 34.015 21.288 34.0908 21.0607C34.1665 20.7577 34.3938 20.6062 34.6968 20.5304L37.4999 20.1516L38.712 17.6516C38.9393 17.1213 39.8484 17.1213 40.0756 17.6516L41.2878 20.1516L44.0908 20.5304C44.3938 20.6062 44.6211 20.7577 44.6968 21.0607C44.7726 21.3638 44.6968 21.6668 44.4696 21.8183L42.4241 23.788L42.8787 26.591C42.9544 26.8941 42.8029 27.1971 42.5756 27.3486C42.7272 27.5001 42.5756 27.5001 42.4241 27.5001ZM36.5908 21.8941L37.8029 23.0304C37.9544 23.1819 38.0302 23.485 38.0302 23.7122L37.7272 25.3789L39.2423 24.6213C39.4696 24.4698 39.6968 24.4698 39.9241 24.6213L41.4393 25.3789L41.1362 23.7122C41.0605 23.485 41.212 23.1819 41.3635 23.0304L42.5756 21.8941L40.909 21.6668C40.6817 21.6668 40.4544 21.4395 40.3029 21.288L39.5453 19.7728L38.7878 21.288C38.712 21.5153 38.4847 21.6668 38.1817 21.6668L36.5908 21.8941Z" fill="#FAFAFA"/>
<path d="M44.9242 48.9396H39.7727C39.3181 48.9396 39.0151 48.6365 39.0151 48.182V43.6365H36.7424C36.4393 43.6365 36.2121 43.485 36.0606 43.2577C35.909 43.0305 35.909 42.7274 36.1363 42.5002L41.7424 34.2426C42.0454 33.8638 42.7272 33.8638 43.0302 34.2426L48.5606 42.4244C48.7121 42.6517 48.7121 42.9547 48.6363 43.182C48.4848 43.4093 48.2575 43.5608 47.9545 43.5608H45.6818V48.1062C45.6818 48.6365 45.303 48.9396 44.9242 48.9396ZM40.5302 47.4244H44.1666V42.8789C44.1666 42.4244 44.4696 42.1214 44.9242 42.1214H46.5151L42.3484 35.985L38.1818 42.1214H39.7727C40.2272 42.1214 40.5302 42.4244 40.5302 42.8789V47.4244Z" fill="#FAFAFA"/>
<path d="M28.712 43.7878H22.3484C21.8939 43.7878 21.5908 43.4847 21.5908 43.0302V36.6665C21.5908 36.3635 21.7423 36.1362 21.9696 35.9847C22.1969 35.8332 22.4999 35.8332 22.7272 35.9847C24.6211 37.0453 26.4393 37.0453 28.3332 35.9847C28.5605 35.8332 28.8635 35.8332 29.0908 35.9847C29.3181 36.1362 29.4696 36.3635 29.4696 36.6665V43.0302C29.4696 43.409 29.0908 43.7878 28.712 43.7878ZM23.106 42.2726H27.9545V37.8787C26.3635 38.4847 24.6969 38.4847 23.106 37.8787V42.2726Z" fill="#FAFAFA"/>
</g>
<defs>
<clipPath id="clip0_18_797">
<rect width="50" height="50" fill="white"/>
</clipPath>
</defs>
</svg>
