<svg width="15" height="15" viewBox="0 0 15 15" fill="none" xmlns="http://www.w3.org/2000/svg">
<path d="M7.49805 0C3.36255 0 -0.00195312 3.3645 -0.00195312 7.5C-0.00195312 11.6355 3.36255 15 7.49805 15C11.6335 15 14.998 11.6355 14.998 7.5C14.998 3.3645 11.6335 0 7.49805 0ZM7.49805 13.5C4.1898 13.5 1.49805 10.8082 1.49805 7.5C1.49805 4.19175 4.1898 1.5 7.49805 1.5C10.8063 1.5 13.498 4.19175 13.498 7.5C13.498 10.8082 10.8063 13.5 7.49805 13.5Z" fill="#776ACA"/>
<path d="M8.24805 3.75H6.74805V8.25H11.248V6.75H8.24805V3.75Z" fill="#776ACA"/>
</svg>
