<svg width="50" height="50" viewBox="0 0 50 50" fill="none" xmlns="http://www.w3.org/2000/svg">
<path d="M13.2092 24.9978C13.2664 25.2212 13.465 25.379 13.6958 25.3844C16.4041 25.4443 18.9296 25.3439 21.6079 25.4018C21.6996 25.5506 21.8976 25.9276 22.2368 26.8004C20.5136 28.8223 17.8868 31.45 18.3629 33.7126C18.7561 35.5829 21.5201 37.2021 24.6152 35.9253C26.2762 35.2391 27.6744 33.9166 29.1527 32.4991C33.3318 32.999 33.9446 33.5601 34.3347 33.5601C34.9117 33.5601 35.0479 32.7486 34.5022 32.5608C32.9791 32.0357 31.4996 31.7708 30.0854 31.5813C32.5918 29.0799 35.0412 26.2424 37.5169 22.9651C38.1162 22.1711 38.5396 21.036 38.6225 20.0013C38.7372 18.5685 37.6925 17.105 36.1925 16.5973C34.9664 16.1833 33.4735 16.3599 32.096 17.0823C30.9191 17.699 29.9569 18.5986 28.9934 19.5437C26.9191 21.5768 24.9094 23.7161 22.9911 25.9192C22.4106 24.5189 22.1537 24.3923 21.8277 24.3791C19.1553 24.3161 16.7006 24.4073 14.1078 24.3644L12.6915 18.8187C12.6212 18.5438 12.34 18.3792 12.0667 18.4481C11.7918 18.5184 11.6259 18.798 11.6962 19.0729L13.2092 24.9978ZM29.7124 20.2768C31.1456 18.8712 32.7517 17.404 34.7986 17.404C36.6113 17.404 37.6895 18.7814 37.5985 19.9197C37.5313 20.7571 37.1774 21.7096 36.6968 22.3457C35.7668 23.5771 34.8408 24.7388 33.9145 25.8503C32.7221 23.8356 30.943 22.1872 28.8427 21.1512C29.1329 20.8601 29.4196 20.5638 29.7124 20.2768ZM28.0841 21.9139C28.0913 21.9176 28.0957 21.9243 28.1031 21.9276C30.2519 22.9089 32.0632 24.5884 33.2029 26.6573C33.2075 26.6656 33.2169 26.6686 33.2219 26.6767C32.0317 28.0676 30.8388 29.3669 29.6337 30.5838C29.5697 30.493 29.4826 30.4174 29.3679 30.3829C27.1735 29.7254 25.2561 28.1157 24.2204 26.0723C25.4722 24.6529 26.7637 23.2646 28.0841 21.9139ZM23.5074 26.8957C24.6747 28.9587 26.6457 30.5788 28.9009 31.3056C27.5943 32.5854 25.9074 34.2804 24.2233 34.9754C21.6574 36.0352 19.6135 34.6666 19.3682 33.5012C19.0298 31.8925 21.2181 29.6014 22.2731 28.3375C22.6776 27.8528 23.0934 27.3747 23.5074 26.8957Z" fill="white"/>
<path d="M26.2379 26.4151C26.9249 26.4151 26.9251 25.2941 26.2379 25.2941C25.9543 25.2941 25.7242 25.5242 25.7242 25.8078V25.9014C25.7242 26.185 25.9543 26.4151 26.2379 26.4151Z" fill="white"/>
<path d="M28.3455 24.9517L28.4398 24.9048L28.2141 24.4433L27.9371 24.0072L28.1198 24.4901L27.894 24.0286C27.6392 24.1537 27.5335 24.4614 27.6582 24.7162C27.7835 24.9714 28.0916 25.0757 28.3455 24.9517Z" fill="white"/>
<path d="M27.9455 27.5462C28.0457 27.9887 28.6418 28.1348 28.9137 27.7462C29.0652 27.5302 29.0268 27.2372 28.8328 27.0666C28.471 26.6691 27.8274 27.0281 27.9455 27.5462Z" fill="white"/>
<path d="M30.0492 26.6506H30.1904C30.474 26.6506 30.7041 26.4205 30.7041 26.1369C30.7041 25.8533 30.474 25.6232 30.1904 25.6232H30.0492C29.7656 25.6232 29.5355 25.8533 29.5355 26.1369C29.5355 26.4205 29.7656 26.6506 30.0492 26.6506Z" fill="white"/>
<path d="M4.59211 30.1012C6.95359 34.1155 11.1227 36.6477 17.7696 41.3142C20.4921 43.2254 23.2018 45.0425 26.4804 44.4474C27.2261 44.3819 27.9607 44.1378 28.6051 43.6949C34.0551 39.9472 39.0707 35.0196 43.1107 29.4431C44.5665 27.4285 45.937 25.4045 46.7032 22.7952C47.5139 20.0046 47.2664 16.4783 46.1006 14.2181C43.3552 8.9305 35.7488 6.91171 30.0876 10.562C28.5036 11.5835 27.0139 13.0309 25.1546 13.2085C25.1155 13.1769 25.0744 13.1491 25.0376 13.1131C23.0507 11.1701 20.2521 10.0437 17.3579 10.0229C11.6982 10.0184 7.40171 12.5533 5.03277 16.0621C2.25751 20.1727 2.07993 25.8309 4.59211 30.1012ZM8.42767 14.174C10.7664 12.0274 14.0776 11.0503 17.3518 11.0503C19.9812 11.0691 22.5209 12.0891 24.3192 13.8476C25.262 14.7693 26.7135 14.8288 27.6944 13.9874C30.087 11.9352 33.0367 10.6202 35.9988 10.2845C39.8369 9.85637 43.619 11.669 45.1882 14.6904C46.226 16.7023 46.4481 19.9906 45.717 22.5075C44.9969 24.9583 43.6796 26.9021 42.2783 28.8405C38.3068 34.3226 33.3775 39.1666 28.0231 42.8481C26.9245 43.6026 25.4914 43.6501 24.3714 42.9665C20.7915 40.7823 17.2969 38.0025 13.9138 35.5921C11.5955 33.9454 9.20524 32.1033 7.42736 29.7916C5.50066 27.286 4.55252 24.4874 4.75753 21.9096C4.97926 19.0521 6.41969 16.0161 8.42767 14.174Z" fill="white"/>
<path d="M8.48518 10.849C8.68283 10.6457 8.67815 10.3199 8.47448 10.1226C7.66982 9.34136 6.96917 8.45911 6.39159 7.50061C6.24477 7.25647 5.92839 7.17821 5.68626 7.32536C5.44345 7.47185 5.3652 7.78756 5.51135 8.03036C6.13474 9.06512 6.89091 10.0169 7.75878 10.8597C7.96275 11.0575 8.28772 11.0524 8.48518 10.849Z" fill="white"/>
<path d="M11.1999 9.69649C11.4674 9.60284 11.6079 9.3092 11.5139 9.04165L10.3885 5.8404C10.2945 5.57285 10.0006 5.43439 9.73369 5.52603C9.4658 5.62034 9.32534 5.91398 9.41932 6.18153L10.5447 9.38278C10.6393 9.65213 10.9347 9.79063 11.1999 9.69649Z" fill="white"/>
<path d="M13.973 9.28852C14.2563 9.28852 14.4864 9.0591 14.4867 8.77549C14.4884 7.86916 14.6466 6.97822 14.9573 6.1274C15.0546 5.86119 14.9175 5.56621 14.651 5.46923C14.3851 5.37157 14.0894 5.50869 13.9921 5.77557C13.6403 6.73876 13.461 7.74743 13.4594 8.77416C13.459 9.05776 13.6884 9.28785 13.972 9.28852C13.9724 9.28852 13.9727 9.28852 13.973 9.28852Z" fill="white"/>
</svg>
