<svg width="50" height="50" viewBox="0 0 50 50" fill="none" xmlns="http://www.w3.org/2000/svg">
<path d="M7.68732 26.935C8.00573 27.1113 8.8764 27.5107 9.17524 27.6367C10.4944 28.1867 10.1741 28.3625 9.96886 29.3276C9.85332 29.8253 9.58903 30.2247 9.52372 30.8312C9.3672 31.7286 10.1893 32.2703 10.1832 32.5255C10.1832 32.5255 10.1745 32.5529 10.1224 32.6044C10.1059 32.6207 9.88377 33.0095 9.77622 33.1603C9.65449 33.3302 9.5167 33.5228 9.44279 33.7623C9.07825 34.8392 9.65482 36.1522 10.7772 36.8123C12.6429 37.9498 15.6748 37.2618 16.8399 38.0163C17.3392 38.3508 17.6255 39.0096 17.6058 39.7782C17.5867 40.5139 17.2964 41.2109 16.9683 41.9982C16.868 42.2383 16.964 42.5159 17.1914 42.6436C17.3436 42.729 17.5068 42.8025 17.6628 42.8837C17.8431 43.0774 18.3507 43.4761 18.6663 43.6565C22.1385 45.6408 26.2586 46.1054 30.1217 46.3936C36.3339 46.857 41.4225 46.5281 41.4873 45.659C41.5655 44.6117 37.5209 44.148 36.4333 43.9438C36.8138 43.1974 35.6327 41.6674 35.3232 41.0403C34.6054 39.5857 34.7682 37.8209 35.3821 36.3195C35.921 35.0014 36.7754 33.8459 37.6574 32.7229C38.9477 32.0915 39.9413 31.1152 40.6991 29.9015C41.9859 27.83 42.7844 24.2068 43.0406 21.9325C43.69 15.6597 40.0756 8.94516 35.2772 5.67372C35.1046 5.55566 34.9314 5.45299 34.7719 5.36637C32.2415 3.88848 29.6115 3.26642 26.4918 3.41859C22.8829 3.59618 19.2419 4.46974 15.6684 6.01551C14.259 6.63088 12.747 7.20879 11.2414 7.27301C10.1622 7.3185 9.49398 8.50233 10.0839 9.42211C10.6451 10.2973 11.3782 11.0498 12.2752 11.6736C11.6698 12.5785 11.3942 13.3692 11.1297 14.4277C10.4228 17.2155 10.9848 18.838 10.9879 18.9065C11.2651 20.2387 11.134 20.2831 10.5842 21.095C10.1624 21.7167 10.2531 21.6589 9.74412 22.2027C9.22463 22.7564 8.93064 23.1878 7.89434 24.0609C7.1666 24.6923 6.83751 25.2729 6.88901 25.8354C6.91677 26.1391 7.07563 26.5752 7.68732 26.935ZM10.9488 8.86761C10.7919 8.62313 10.9871 8.31222 11.2849 8.29973C12.9594 8.22816 14.5788 7.61213 16.0777 6.95796C19.5362 5.46168 23.0571 4.61622 26.5417 4.44465C29.4536 4.3072 31.9031 4.88076 34.2665 6.26066C34.4103 6.33925 34.5542 6.42386 34.6983 6.52219C39.2121 9.59959 42.6252 15.9228 42.0192 21.8221C41.792 23.8357 41.0558 27.3804 39.8269 29.3584C38.2429 31.8972 36.1678 32.159 36.0993 32.1944C34.8311 32.48 33.6278 32.1516 32.3181 31.1704C29.264 28.8627 34.7386 21.5997 29.6289 20.2824C28.9507 20.1016 28.2571 20.1373 27.6617 20.4864C26.4929 21.1723 26.4228 22.4723 26.2815 23.9134C26.2365 24.2521 25.6546 24.4962 25.4738 24.3257C24.7635 23.6595 25.5962 20.8901 25.22 18.0965C24.9397 16.0557 23.9641 14.3578 22.5428 13.4381C20.8315 12.3339 18.6965 12.4333 16.8075 12.2023C16.2612 12.1272 15.65 12.0728 15.0493 11.9568C14.7967 11.7817 12.4354 11.1858 10.9488 8.86761ZM8.56188 24.8418C9.66466 23.9132 10.0574 23.37 10.4939 22.905C11.1186 22.238 11.0731 22.1979 11.1628 22.0816C11.6855 21.2542 12.1047 20.8421 12.1471 20.0944C12.2194 19.2182 11.826 18.2654 11.8237 17.7436C11.7001 15.8893 12.225 13.6321 13.0725 12.3301C14.1172 12.9856 15.5539 13.0671 16.675 13.2213C18.5802 13.4529 20.5262 13.3596 21.9853 14.3012C23.1548 15.0577 23.9628 16.4922 24.2019 18.2349C24.6047 21.2253 23.5276 23.9088 24.7708 25.0749C25.6006 25.8555 27.1509 25.1733 27.3012 24.0394L27.3527 23.5789C27.443 22.7643 27.4807 21.7844 28.1818 21.3723C28.4975 21.187 28.9068 21.1532 29.3687 21.276C30.4486 21.5546 30.9489 22.2435 30.8977 23.3873C30.7788 26.7217 29.2392 30.1319 31.7004 31.9917C32.8535 32.8553 33.9866 33.2947 35.12 33.3215C33.378 36.074 32.3082 38.1903 33.4913 41.3741L33.4933 41.3728C33.506 41.4062 33.5217 41.439 33.5405 41.4697C34.2231 43.1298 34.4121 42.877 34.2853 43.4235C34.2762 43.4376 34.2679 43.4516 34.2598 43.4664C34.1762 43.6242 34.0157 43.8222 33.6622 43.8797C30.6449 44.3903 29.1376 44.4155 27.7032 44.3292C27.673 44.326 26.926 44.2962 27.0336 44.2958C23.9488 44.0039 20.8257 43.3944 18.0941 41.9641C18.368 41.2885 18.6128 40.5848 18.6325 39.8049C18.6616 38.6819 18.2054 37.6946 17.4055 37.1588C15.8429 36.1462 12.9696 36.9454 11.3053 35.9308C10.6856 35.5662 10.1832 34.7783 10.42 34.0786C10.4636 33.9395 10.8456 33.4528 10.9387 33.2338C11.6984 32.3394 10.5974 31.3826 10.5438 31.1851C10.56 30.987 10.4724 30.9734 10.7504 30.2339C10.968 29.6591 10.9326 29.6754 11.0524 29.2273C11.6402 27.0374 9.948 27.013 8.19667 26.0427C8.095 25.9832 7.92343 25.8648 7.91206 25.7421C7.90537 25.6688 7.93313 25.3876 8.56188 24.8418Z" fill="white"/>
<path d="M21.605 11.4591C22.647 12.0493 23.7092 11.4839 24.5076 11.6273C25.0183 11.72 25.5019 12.1364 25.8009 12.7404C25.9628 13.0674 26.0822 13.4541 26.1765 13.9571C26.3009 14.6179 26.8216 15.1446 27.5032 15.2982C29.2637 15.6961 30.7921 17.1259 31.3065 18.8563C31.5101 19.5425 32.0944 20.0311 32.7947 20.101C33.5482 20.1763 34.4194 20.3094 35.1679 20.7284C35.7642 21.0625 36.2428 21.6348 36.4167 22.2227C36.6077 22.8665 37.1257 23.3545 37.7685 23.4963C39.2936 23.8338 40.2971 22.0297 39.7086 20.5358C39.6407 20.3632 39.6842 20.1455 39.8253 19.9535C41.5964 17.546 40.4565 14.1228 37.4762 13.349C37.2033 13.2781 37.0026 13.0467 36.9772 12.7728C36.6921 9.71351 33.7871 7.71535 30.8376 8.52643C30.576 8.59766 30.2921 8.49599 30.1419 8.28061C29.1075 6.79169 27.3005 5.88235 25.5283 5.95827C23.6729 6.04054 21.8271 7.24118 20.9352 8.94548C20.4108 9.94679 20.674 10.9337 21.605 11.4591ZM21.8455 9.42172C22.5732 8.03079 24.0715 7.05155 25.5738 6.98466C27.0026 6.92714 28.46 7.66056 29.2985 8.86689C29.4224 9.04552 29.5803 9.18966 29.7562 9.30379C29.7614 9.33577 29.7594 9.36779 29.771 9.39931C29.9209 9.80633 29.8523 10.2949 29.5961 10.6444C29.4286 10.8732 29.4781 11.1946 29.7068 11.3625C29.9361 11.5298 30.2571 11.4808 30.4249 11.2518C30.7797 10.7676 30.9267 10.1559 30.8551 9.56582C30.94 9.55612 31.0249 9.54011 31.1091 9.51704C33.4635 8.87235 35.7294 10.4586 35.9545 12.8681C35.9736 13.0735 36.0342 13.2673 36.1223 13.4464C36.11 13.4651 36.0923 13.4782 36.0822 13.4989C35.9455 13.7795 35.6568 13.9841 35.3468 14.0203C35.0652 14.0534 34.8632 14.3082 34.896 14.5901C34.9268 14.8517 35.1485 15.0443 35.4057 15.0443C35.8389 15.0443 36.4662 14.7399 36.8454 14.1927C36.9626 14.2554 37.0856 14.3092 37.218 14.3437C39.4965 14.9351 40.3415 17.518 38.9979 19.3449C38.6461 19.8231 38.5544 20.4091 38.7527 20.9124C38.9295 21.3608 38.8786 21.9313 38.5404 22.317C38.189 22.7149 37.5545 22.4461 37.4019 21.9308C37.1511 21.0833 36.5036 20.299 35.6699 19.8321C34.7565 19.3208 33.7552 19.1643 32.8967 19.079C32.6134 19.0506 32.3757 18.8486 32.291 18.5636C31.6743 16.4884 29.8413 14.7734 27.7296 14.2962C27.448 14.2326 27.2347 14.0249 27.1865 13.7674C27.0741 13.1694 26.9266 12.6986 26.722 12.2849C26.2792 11.3906 25.52 10.7668 24.6909 10.6167C23.7137 10.4397 22.7568 10.9299 22.11 10.5645C21.9455 10.4715 21.4442 10.1886 21.8455 9.42172Z" fill="white"/>
</svg>
